#!OML:ASF G:\ViconDB\ViconDB\414\test\team2\shane.ASF
:FULLY-SPECIFIED
:DEGREES
244
root 8.02331 16.1954 3.30752 172.333 216.144 -176.028
lowerback 12.2057 0.700782 3.96282
upperback 6.42542 1.24739 1.7445
thorax -0.0622287 0.640844 -0.565167
lowerneck -21.3986 11.156 3.19576
upperneck 11.5793 16.351 -12.0378
head 8.39835 6.7324 -2.21484
rclavicle 2.34566e-014 2.8625e-014
rhumerus -28.9823 7.73216 -77.9126
rradius 50.812
rwrist 14.7299
rhand -33.7768 -23.739
rfingers 7.12502
rthumb -6.9641 -413.604
lclavicle 2.34566e-014 2.8625e-014
lhumerus -28.7929 -33.7871 101.481
lradius 42.4691
lwrist -17.307
lhand -41.9088 5.86719
lfingers 7.12502
lthumb -14.8073 35.3182
rfemur 0.331903 -9.4213 -1.49602
rtibia 50.7052
rfoot -19.7596 -16.0985
rtoes -11.2791
lfemur -12.3642 11.1031 -18.4216
ltibia 46.7538
lfoot -32.312 -8.06527
ltoes -11.2927
245
root 7.98682 16.2161 3.46141 172.511 214.981 -176.544
lowerback 12.3565 0.596391 3.80468
upperback 6.25714 1.11511 1.85023
thorax -0.331529 0.566017 -0.355289
lowerneck -21.3633 11.2533 3.10116
upperneck 11.7793 16.4746 -11.7043
head 8.42597 6.81172 -2.07289
rclavicle 7.99114e-014 -4.13472e-014
rhumerus -29.6713 7.65333 -78.2273
rradius 51.2686
rwrist 16.8222
rhand -34.0049 -20.862
rfingers 7.12502
rthumb -7.18429 -410.72
lclavicle 7.99114e-014 -4.13472e-014
lhumerus -29.0776 -33.982 102.45
lradius 42.7235
lwrist -16.998
lhand -41.6374 5.59515
lfingers 7.12502
lthumb -14.5458 35.0652
rfemur -0.435109 -8.56635 -0.34062
rtibia 52.0868
rfoot -20.2158 -15.551
rtoes -10.455
lfemur -11.4471 10.1077 -18.299
ltibia 46.1952
lfoot -32.5229 -8.27911
ltoes -11.1729
246
root 7.93747 16.2485 3.61342 172.474 214.068 -176.816
lowerback 12.7123 0.59317 3.34306
upperback 6.05075 1.09258 1.87851
thorax -0.752504 0.539729 -0.0712182
lowerneck -21.2911 11.3448 3.2327
upperneck 11.8938 16.5522 -11.566
head 8.45385 6.86559 -2.03612
rclavicle 6.81831e-014 -4.77083e-015
rhumerus -30.3803 7.40495 -78.7017
rradius 51.5664
rwrist 19.4147
rhand -36.4859 -17.2151
rfingers 7.12502
rthumb -9.57863 -406.977
lclavicle 6.81831e-014 -4.77083e-015
lhumerus -29.7084 -34.3847 103.424
lradius 43.0336
lwrist -17.3573
lhand -41.669 5.80828
lfingers 7.12502
lthumb -14.5762 35.2761
rfemur -1.37995 -7.57143 0.784078
rtibia 53.3668
rfoot -20.2192 -15.7513
rtoes -11.2766
lfemur -10.3559 9.35607 -18.269
ltibia 45.532
lfoot -32.7317 -8.57192
ltoes -10.9619
247
root 7.90487 16.2713 3.77676 172.56 213.414 -177.129
lowerback 12.8087 0.547292 3.32187
upperback 5.91556 1.04329 1.86654
thorax -0.947644 0.513095 -0.0678291
lowerneck -21.2987 11.4096 3.11015
upperneck 11.9635 16.6488 -11.3826
head 8.45605 6.92007 -1.94308
rclavicle 2.5842e-015 7.95139e-015
rhumerus -30.8501 7.60624 -79.193
rradius 51.8495
rwrist 21.498
rhand -34.3567 -17.3687
rfingers 7.12502
rthumb -7.52391 -407.215
lclavicle 2.5842e-015 7.95139e-015
lhumerus -30.0981 -34.6205 104.347
lradius 43.1672
lwrist -17.5004
lhand -41.8269 5.95157
lfingers 7.12502
lthumb -14.7284 35.4083
rfemur -2.47131 -6.56741 1.78687
rtibia 54.5033
rfoot -20.2464 -15.6
rtoes -11.2674
lfemur -9.36426 9.033 -18.2274
ltibia 44.901
lfoot -33.0035 -8.86311
ltoes -10.9461
248
root 7.86585 16.2984 3.93152 172.747 212.327 -177.558
lowerback 12.8444 0.329415 3.27237
upperback 5.79138 0.761092 1.85132
thorax -1.10463 0.370842 -0.0197088
lowerneck -21.4281 11.497 3.16306
upperneck 12.1359 16.7426 -11.2168
head 8.52912 6.96833 -1.87351
rclavicle -3.65764e-014 1.11319e-014
rhumerus -31.1312 7.48686 -79.7371
rradius 51.6547
rwrist 24.2341
rhand -35.3591 -15.5657
rfingers 7.12502
rthumb -8.49132 -405.375
lclavicle -3.65764e-014 1.11319e-014
lhumerus -30.3363 -34.6672 104.983
lradius 43.2936
lwrist -17.8181
lhand -41.8265 5.70389
lfingers 7.12502
lthumb -14.728 35.1607
rfemur -3.46864 -5.89889 2.91163
rtibia 55.4578
rfoot -20.5775 -15.7022
rtoes -12.0901
lfemur -8.44673 8.48889 -18.0813
ltibia 44.2091
lfoot -33.2324 -9.36547
ltoes -10.8739
249
root 7.82425 16.3173 4.0915 172.832 211.459 -177.803
lowerback 12.5757 0.183058 3.23114
upperback 5.84002 0.549796 1.75293
thorax -0.913685 0.269999 -0.0690047
lowerneck -21.6323 11.5457 3.25677
upperneck 12.1122 16.7757 -11.2154
head 8.56485 6.98008 -1.87225
rclavicle -9.22361e-014 1.19271e-014
rhumerus -31.2288 7.93495 -80.3894
rradius 51.4634
rwrist 26.1597
rhand -34.9795 -15.5245
rfingers 7.12502
rthumb -8.12497 -405.348
lclavicle -9.22361e-014 1.19271e-014
lhumerus -30.4225 -35.1864 105.504
lradius 43.5142
lwrist -17.586
lhand -41.7981 5.68836
lfingers 7.12502
lthumb -14.7007 35.1472
rfemur -4.57048 -5.42389 3.68536
rtibia 56.2002
rfoot -20.6916 -15.1686
rtoes -11.9215
lfemur -7.52836 7.99355 -18.1058
ltibia 43.5835
lfoot -33.4873 -9.68337
ltoes -10.7165
250
root 7.78432 16.3477 4.25602 173.024 210.388 -178.131
lowerback 12.2929 -0.0648821 3.22973
upperback 5.82675 0.213229 1.73927
thorax -0.783187 0.105314 -0.0385411
lowerneck -21.8115 11.5387 2.98944
upperneck 12.214 16.7959 -10.9268
head 8.57759 6.99389 -1.72936
rclavicle 4.8901e-014 -2.38542e-015
rhumerus -31.3913 8.11918 -80.9154
rradius 51.2388
rwrist 28.3147
rhand -34.9176 -14.6336
rfingers 7.12502
rthumb -8.06523 -404.46
lclavicle 4.8901e-014 -2.38542e-015
lhumerus -30.4258 -35.353 106.136
lradius 43.4442
lwrist -17.561
lhand -41.9076 5.68539
lfingers 7.12502
lthumb -14.8061 35.1365
rfemur -5.64778 -4.77871 4.65246
rtibia 56.7006
rfoot -20.6712 -15.4454
rtoes -11.4321
lfemur -6.70703 7.2007 -18.1075
ltibia 42.9503
lfoot -33.5692 -10.1848
ltoes -10.3015
